<svg width="18" height="18" viewBox="0 0 18 18" fill="none" xmlns="http://www.w3.org/2000/svg">
<path d="M12.375 15V13.4778C12.375 12.5461 11.9555 11.6324 11.1077 11.246C10.0736 10.7746 8.83342 10.5 7.5 10.5C6.16659 10.5 4.92638 10.7746 3.89226 11.246C3.04445 11.6324 2.625 12.5461 2.625 13.4778V15" stroke="#333333" stroke-width="1.5" stroke-linecap="round" stroke-linejoin="round"/>
<path d="M15.375 15.0007V13.4785C15.375 12.5467 14.9555 11.6332 14.1077 11.2467C13.9123 11.1576 13.7094 11.0755 13.5 11.001" stroke="#333333" stroke-width="1.5" stroke-linecap="round" stroke-linejoin="round"/>
<path d="M7.5 8.25C8.94975 8.25 10.125 7.07475 10.125 5.625C10.125 4.17525 8.94975 3 7.5 3C6.05025 3 4.875 4.17525 4.875 5.625C4.875 7.07475 6.05025 8.25 7.5 8.25Z" stroke="#333333" stroke-width="1.5" stroke-linecap="round" stroke-linejoin="round"/>
<path d="M11.25 3.1084C12.3343 3.43111 13.125 4.43556 13.125 5.62469C13.125 6.81383 12.3343 7.8183 11.25 8.14103" stroke="#333333" stroke-width="1.5" stroke-linecap="round" stroke-linejoin="round"/>
</svg>
