<svg width="12" height="12" viewBox="0 0 12 12" fill="none" xmlns="http://www.w3.org/2000/svg">
<path d="M6 12C6.13851 12 6.25813 11.9538 6.35887 11.8615C6.4596 11.7733 6.52046 11.6537 6.54145 11.5026C6.64638 10.7093 6.7639 10.042 6.89402 9.50052C7.02413 8.95908 7.19412 8.51416 7.40399 8.16579C7.61385 7.81742 7.88877 7.5404 8.22875 7.33473C8.57293 7.12487 9.00944 6.96327 9.5383 6.84995C10.0714 6.73242 10.7219 6.62959 11.49 6.54145C11.6369 6.52466 11.7587 6.4659 11.8552 6.36516C11.9517 6.26023 12 6.13851 12 6C12 5.85729 11.9517 5.73557 11.8552 5.63484C11.7587 5.52991 11.6369 5.46904 11.49 5.45226C10.7219 5.36411 10.0735 5.26128 9.5446 5.14376C9.01994 5.02204 8.58552 4.85834 8.24134 4.65268C7.90136 4.44701 7.62644 4.17209 7.41658 3.82791C7.20672 3.47954 7.03673 3.03463 6.90661 2.49318C6.77649 1.95173 6.65477 1.28437 6.54145 0.491081C6.52046 0.344176 6.4596 0.226653 6.35887 0.13851C6.25813 0.04617 6.13851 0 6 0C5.86149 0 5.74187 0.04617 5.64113 0.13851C5.5446 0.226653 5.48374 0.344176 5.45855 0.491081C5.34942 1.28856 5.2298 1.95803 5.09968 2.49948C4.97377 3.04092 4.80588 3.48583 4.59601 3.83421C4.38615 4.18258 4.11123 4.4596 3.77125 4.66527C3.43127 4.87093 2.99475 5.03253 2.4617 5.15005C1.93284 5.26758 1.28227 5.36831 0.509969 5.45226C0.363064 5.46904 0.241343 5.52991 0.144806 5.63484C0.0482686 5.73557 0 5.85729 0 6C0 6.13851 0.04617 6.26023 0.13851 6.36516C0.235047 6.4659 0.358867 6.52466 0.509969 6.54145C1.15215 6.62959 1.70829 6.72403 2.17838 6.82476C2.64848 6.9213 3.04932 7.04302 3.3809 7.18993C3.71249 7.33263 3.98951 7.51521 4.21196 7.73767C4.43442 7.96013 4.6212 8.23924 4.7723 8.57503C4.9234 8.91081 5.05142 9.31794 5.15635 9.79643C5.26128 10.2749 5.36201 10.8457 5.45855 11.5089C5.48374 11.6558 5.54669 11.7733 5.64743 11.8615C5.74816 11.9538 5.86569 12 6 12Z" fill="#333333"/>
</svg>
