<svg width="16" height="16" viewBox="0 0 16 16" fill="none" xmlns="http://www.w3.org/2000/svg">
<path d="M13.3333 5.33301H2.66667C2.29848 5.33301 2 5.63148 2 5.99967V7.33301C2 7.7012 2.29848 7.99967 2.66667 7.99967H13.3333C13.7015 7.99967 14 7.7012 14 7.33301V5.99967C14 5.63148 13.7015 5.33301 13.3333 5.33301Z" stroke="#333333" stroke-width="1.33333" stroke-linecap="round" stroke-linejoin="round"/>
<path d="M8 5.33301V13.9997" stroke="#333333" stroke-width="1.33333" stroke-linecap="round" stroke-linejoin="round"/>
<path d="M12.6673 8V12.6667C12.6673 13.0203 12.5268 13.3594 12.2768 13.6095C12.0267 13.8595 11.6876 14 11.334 14H4.66732C4.3137 14 3.97456 13.8595 3.72451 13.6095C3.47446 13.3594 3.33398 13.0203 3.33398 12.6667V8" stroke="#333333" stroke-width="1.33333" stroke-linecap="round" stroke-linejoin="round"/>
<path d="M4.9987 5.33362C4.55667 5.33362 4.13275 5.15803 3.82019 4.84547C3.50763 4.53291 3.33203 4.10899 3.33203 3.66696C3.33203 3.22493 3.50763 2.80101 3.82019 2.48845C4.13275 2.17589 4.55667 2.00029 4.9987 2.00029C5.64182 1.98909 6.27205 2.30113 6.80719 2.89573C7.34233 3.49033 7.75755 4.33989 7.9987 5.33362C8.23985 4.33989 8.65507 3.49033 9.19021 2.89573C9.72535 2.30113 10.3556 1.98909 10.9987 2.00029C11.4407 2.00029 11.8646 2.17589 12.1772 2.48845C12.4898 2.80101 12.6654 3.22493 12.6654 3.66696C12.6654 4.10899 12.4898 4.53291 12.1772 4.84547C11.8646 5.15803 11.4407 5.33362 10.9987 5.33362" stroke="#333333" stroke-width="1.33333" stroke-linecap="round" stroke-linejoin="round"/>
</svg>
