<svg width="28" height="28" viewBox="0 0 28 28" fill="none" xmlns="http://www.w3.org/2000/svg">
<rect width="28" height="28" rx="14" fill="#333333"/>
<path d="M14.0007 5.83334C12.3854 5.83334 10.8065 6.31231 9.46349 7.20967C8.12049 8.10704 7.07375 9.3825 6.45563 10.8748C5.83752 12.367 5.67579 14.0091 5.9909 15.5932C6.30602 17.1774 7.08382 18.6326 8.22595 19.7747C9.36807 20.9168 10.8232 21.6946 12.4074 22.0098C13.9916 22.3249 15.6336 22.1631 17.1259 21.545C18.6182 20.9269 19.8936 19.8802 20.791 18.5372C21.6883 17.1942 22.1673 15.6152 22.1673 14L19.0796 14C19.0796 15.0045 18.7817 15.9865 18.2236 16.8217C17.6655 17.6569 16.8723 18.3079 15.9443 18.6923C15.0162 19.0767 13.995 19.1773 13.0098 18.9813C12.0246 18.7854 11.1196 18.3017 10.4093 17.5914C9.699 16.8811 9.21528 15.9761 9.01931 14.9909C8.82334 14.0056 8.92392 12.9844 9.30833 12.0564C9.69274 11.1283 10.3437 10.3351 11.1789 9.77703C12.0142 9.21895 12.9961 8.92108 14.0007 8.92108V5.83334Z" fill="white"/>
<path d="M15.8848 8.97431V5.83328H22.1668V12.1153H19.3113V8.97431H15.8848Z" fill="#8DE87F"/>
</svg>
