<svg width="12" height="12" viewBox="0 0 12 12" fill="none" xmlns="http://www.w3.org/2000/svg">
<g clip-path="url(#clip0_0_31441)">
<path d="M1.5 6H1.505M3.75 6H3.755M8.25 6H8.255M6 6H6.005M10.5 6H10.505M10.5 10.5V10.1C10.5 9.53995 10.5 9.25992 10.391 9.04601C10.2951 8.85785 10.1422 8.70487 9.95399 8.60899C9.74008 8.5 9.46005 8.5 8.9 8.5H3.1C2.53995 8.5 2.25992 8.5 2.04601 8.60899C1.85785 8.70487 1.70487 8.85785 1.60899 9.04601C1.5 9.25992 1.5 9.53995 1.5 10.1V10.5M10.5 1.5V1.9C10.5 2.46005 10.5 2.74008 10.391 2.95399C10.2951 3.14215 10.1422 3.29513 9.95399 3.39101C9.74008 3.5 9.46005 3.5 8.9 3.5H3.1C2.53995 3.5 2.25992 3.5 2.04601 3.39101C1.85785 3.29513 1.70487 3.14215 1.60899 2.95399C1.5 2.74008 1.5 2.46005 1.5 1.9V1.5" stroke="black" stroke-width="1.1" stroke-linecap="round" stroke-linejoin="round"/>
</g>
<defs>
<clipPath id="clip0_0_31441">
<rect width="12" height="12" fill="white"/>
</clipPath>
</defs>
</svg>
