<svg width="16" height="16" viewBox="0 0 16 16" fill="none" xmlns="http://www.w3.org/2000/svg">
<path d="M8.66797 8.00002C8.66797 7.63183 8.36949 7.33335 8.0013 7.33335C7.63311 7.33335 7.33464 7.63183 7.33464 8.00002C7.33464 8.36821 7.63311 8.66669 8.0013 8.66669C8.36949 8.66669 8.66797 8.36821 8.66797 8.00002Z" stroke="#9C9C9C" stroke-width="2" stroke-linecap="round" stroke-linejoin="round"/>
<path d="M4.0013 8.00002C4.0013 7.63183 3.70283 7.33335 3.33464 7.33335C2.96645 7.33335 2.66797 7.63183 2.66797 8.00002C2.66797 8.36821 2.96645 8.66669 3.33464 8.66669C3.70283 8.66669 4.0013 8.36821 4.0013 8.00002Z" stroke="#9C9C9C" stroke-width="2" stroke-linecap="round" stroke-linejoin="round"/>
<path d="M13.3346 8.00002C13.3346 7.63183 13.0362 7.33335 12.668 7.33335C12.2998 7.33335 12.0013 7.63183 12.0013 8.00002C12.0013 8.36821 12.2998 8.66669 12.668 8.66669C13.0362 8.66669 13.3346 8.36821 13.3346 8.00002Z" stroke="#9C9C9C" stroke-width="2" stroke-linecap="round" stroke-linejoin="round"/>
</svg>
