<svg width="24" height="24" viewBox="0 0 24 24" fill="none" xmlns="http://www.w3.org/2000/svg">
<path d="M12 6H7.33333C6.97971 6 6.64057 6.14048 6.39052 6.39052C6.14048 6.64057 6 6.97971 6 7.33333V16.6667C6 17.0203 6.14048 17.3594 6.39052 17.6095C6.64057 17.8595 6.97971 18 7.33333 18H16.6667C17.0203 18 17.3594 17.8595 17.6095 17.6095C17.8595 17.3594 18 17.0203 18 16.6667V12" stroke="#333333" stroke-width="1.33333" stroke-linecap="round" stroke-linejoin="round"/>
<path d="M16.2494 5.75003C16.5146 5.48481 16.8743 5.33582 17.2494 5.33582C17.6245 5.33582 17.9842 5.48481 18.2494 5.75003C18.5146 6.01525 18.6636 6.37496 18.6636 6.75003C18.6636 7.1251 18.5146 7.48481 18.2494 7.75003L12.2407 13.7594C12.0824 13.9175 11.8869 14.0333 11.6721 14.096L9.75674 14.656C9.69938 14.6728 9.63857 14.6738 9.58068 14.6589C9.5228 14.6441 9.46996 14.614 9.42771 14.5717C9.38546 14.5295 9.35534 14.4766 9.34051 14.4188C9.32568 14.3609 9.32668 14.3001 9.34341 14.2427L9.90341 12.3274C9.96643 12.1127 10.0824 11.9174 10.2407 11.7594L16.2494 5.75003Z" stroke="#333333" stroke-width="1.33333" stroke-linecap="round" stroke-linejoin="round"/>
</svg>
