<svg width="20" height="20" viewBox="0 0 20 20" fill="none" xmlns="http://www.w3.org/2000/svg">
<path fill-rule="evenodd" clip-rule="evenodd" d="M2.75858 3.01795C2.56191 3.03658 2.41974 3.06889 2.23563 3.13679C1.59971 3.37132 1.14252 3.89213 1.03189 4.5081C0.989371 4.74484 0.989371 15.2523 1.03189 15.489C1.14252 16.105 1.59971 16.6258 2.23563 16.8604C2.42679 16.9309 2.55821 16.9593 2.79233 16.9808C3.07058 17.0064 16.9294 17.0064 17.2077 16.9808C17.4418 16.9593 17.5732 16.9309 17.7644 16.8604C18.4003 16.6258 18.8575 16.105 18.9681 15.489C19.0106 15.2523 19.0106 4.74484 18.9681 4.5081C18.8575 3.89213 18.4003 3.37132 17.7644 3.13679C17.5732 3.06629 17.4418 3.03785 17.2077 3.01633C16.9596 2.99353 2.99988 2.9951 2.75858 3.01795ZM2.81338 4.27868C2.70473 4.30531 2.56168 4.39665 2.49801 4.48004C2.39225 4.61855 2.39053 4.634 2.3908 5.44865L2.39105 6.2015L6.06089 8.50333C8.63431 10.1175 9.75748 10.8125 9.82026 10.8296C9.93843 10.8618 10.0737 10.8605 10.1872 10.826C10.2479 10.8075 11.529 10.0143 13.9441 8.49973L17.6089 6.2015L17.6092 5.44712C17.6094 4.73309 17.6074 4.68767 17.5706 4.59863C17.5241 4.486 17.3962 4.36196 17.2671 4.30435L17.176 4.26369L10.0385 4.26044C4.43921 4.25789 2.88216 4.26182 2.81338 4.27868ZM2.39055 11.5157C2.39055 15.303 2.39057 15.3045 2.43039 15.4009C2.47766 15.5154 2.59974 15.6334 2.73211 15.6924L2.824 15.7335H10H17.176L17.2671 15.6928C17.3962 15.6352 17.5241 15.5112 17.5707 15.3984C17.6093 15.3049 17.6095 15.2786 17.6047 11.5166L17.5998 7.72902L14.3175 9.78829C12.5123 10.9209 10.9692 11.8785 10.8885 11.9164C10.3348 12.1759 9.65299 12.1742 9.10393 11.9119C9.01904 11.8713 7.48462 10.9191 5.69413 9.79585C3.90366 8.67258 2.42788 7.74758 2.41463 7.74028C2.3954 7.72967 2.39055 8.48929 2.39055 11.5157Z" fill="#9C9C9C"/>
</svg>
