<svg width="20" height="20" viewBox="0 0 20 20" fill="none" xmlns="http://www.w3.org/2000/svg">
<path d="M7.5 12C7.5 12 8.625 13.5 10.5 13.5C12.375 13.5 13.5 12 13.5 12M12.75 8.25H12.7575M8.25 8.25H8.2575M18 10.5C18 14.6421 14.6421 18 10.5 18C6.35786 18 3 14.6421 3 10.5C3 6.35786 6.35786 3 10.5 3C14.6421 3 18 6.35786 18 10.5ZM13.125 8.25C13.125 8.45711 12.9571 8.625 12.75 8.625C12.5429 8.625 12.375 8.45711 12.375 8.25C12.375 8.04289 12.5429 7.875 12.75 7.875C12.9571 7.875 13.125 8.04289 13.125 8.25ZM8.625 8.25C8.625 8.45711 8.45711 8.625 8.25 8.625C8.04289 8.625 7.875 8.45711 7.875 8.25C7.875 8.04289 8.04289 7.875 8.25 7.875C8.45711 7.875 8.625 8.04289 8.625 8.25Z" stroke="#909090" stroke-width="1.5" stroke-linecap="round" stroke-linejoin="round"/>
</svg>
