<svg width="24" height="24" viewBox="0 0 24 24" fill="none" xmlns="http://www.w3.org/2000/svg">
<path fill-rule="evenodd" clip-rule="evenodd" d="M19 3H5C3.9 3 3 3.9 3 5V19C3 20.1 3.9 21 5 21H19C20.1 21 21 20.1 21 19V5C21 3.9 20.1 3 19 3Z" fill="#FC3400"/>
<path fill-rule="evenodd" clip-rule="evenodd" d="M5.964 12.748V14.76H5V9H7.38C7.436 9 7.508 9.002 7.596 9.006C7.684 9.01 7.76533 9.01867 7.84 9.032C8.17333 9.08267 8.44867 9.19333 8.666 9.364C8.88333 9.53467 9.04467 9.75 9.15 10.01C9.25533 10.27 9.308 10.5587 9.308 10.876C9.308 11.1907 9.25467 11.478 9.148 11.738C9.04133 11.998 8.87933 12.2133 8.662 12.384C8.44467 12.5547 8.17067 12.6653 7.84 12.716C7.76533 12.7267 7.68333 12.7347 7.594 12.74C7.53444 12.7436 7.48289 12.7459 7.43933 12.7471L5.964 12.748ZM5.964 11.848H7.34C7.39333 11.848 7.45333 11.8453 7.52 11.84C7.58667 11.8347 7.648 11.824 7.704 11.808C7.864 11.768 7.99 11.6973 8.082 11.596C8.174 11.4947 8.23933 11.38 8.278 11.252C8.31667 11.124 8.336 10.9987 8.336 10.876C8.336 10.7533 8.31667 10.6273 8.278 10.498C8.23933 10.3687 8.174 10.2533 8.082 10.152C7.99 10.0507 7.864 9.98 7.704 9.94C7.648 9.924 7.58667 9.914 7.52 9.91C7.45333 9.906 7.39333 9.904 7.34 9.904H5.964V11.848ZM11.989 14.7598C12.043 14.7593 12.124 14.758 12.232 14.756C12.376 14.7533 12.5133 14.744 12.644 14.728C13.1 14.6693 13.486 14.5073 13.802 14.242C14.118 13.9767 14.3573 13.6387 14.52 13.228C14.6827 12.8173 14.764 12.368 14.764 11.88C14.764 11.392 14.6827 10.9427 14.52 10.532C14.3573 10.1213 14.118 9.78333 13.802 9.518C13.486 9.25267 13.1 9.09067 12.644 9.032C12.5107 9.016 12.3727 9.00667 12.23 9.004C12.0873 9.00133 11.992 9 11.944 9H10.108V14.76L11.989 14.7598ZM16.676 12.36V14.76H15.712V9H19.18V9.964H16.676V11.4H18.7V12.36H16.676Z" fill="white"/>
<path d="M12.0313 13.8512L11.088 13.8521V9.90808H11.944C12.024 9.90808 12.126 9.91008 12.25 9.91408C12.374 9.91808 12.484 9.93075 12.58 9.95208C12.8466 10.0027 13.066 10.1214 13.238 10.3081C13.41 10.4947 13.5373 10.7254 13.62 11.0001C13.7026 11.2747 13.744 11.5681 13.744 11.8801C13.744 12.1814 13.7033 12.4694 13.622 12.7441C13.5406 13.0187 13.4146 13.2521 13.244 13.4441C13.0733 13.6361 12.852 13.7574 12.58 13.8081C12.484 13.8267 12.374 13.8387 12.25 13.8441C12.126 13.8494 12.024 13.8521 11.944 13.8521L12.0313 13.8512Z" fill="#FC3400"/>
</svg>
