<svg width="18" height="18" viewBox="0 0 18 18" fill="none" xmlns="http://www.w3.org/2000/svg">
<g clip-path="url(#clip0_0_27246)">
<path fill-rule="evenodd" clip-rule="evenodd" d="M9.3609 1.01349C8.28638 0.708924 7.18082 1.34828 6.88792 2.42311L4.75947 10.2335C4.47632 11.2724 5.05183 12.3604 6.07837 12.6929L12.3225 14.7156C13.4195 15.071 14.5777 14.4226 14.8706 13.3108L16.995 5.24642C17.2748 4.18394 16.6605 3.08248 15.6011 2.78218L9.3609 1.01349ZM9.8721 4.70102C9.56888 4.63362 9.26843 4.82483 9.201 5.1281C9.13358 5.43136 9.32483 5.73184 9.62805 5.79923L13.0031 6.54923C13.3064 6.61662 13.6068 6.42541 13.6742 6.12215C13.7416 5.81888 13.5504 5.51841 13.2471 5.45102L9.8721 4.70102ZM9.1104 7.69853C8.80583 7.63763 8.50943 7.83518 8.44853 8.13983C8.38763 8.4444 8.58518 8.7408 8.88983 8.8017L10.7648 9.1767C11.0694 9.2376 11.3657 9.04005 11.4267 8.7354C11.4876 8.43083 11.2901 8.1345 10.9854 8.07353L9.1104 7.69853Z" fill="#9C9C9C"/>
<path fill-rule="evenodd" clip-rule="evenodd" d="M0.824115 7.30093C0.448572 5.86825 1.54943 4.5 3.01382 4.5H4.08623C4.50044 4.5 4.83623 4.83579 4.83623 5.25C4.83623 5.66421 4.50044 6 4.08623 6H3.01382C2.50119 6 2.15662 6.46862 2.2751 6.92059L4.44347 15.1927C4.54342 15.5741 4.94249 15.8242 5.35607 15.7302L8.8347 14.9399C9.23858 14.8481 9.64043 15.1012 9.73223 15.5051C9.82395 15.909 9.5709 16.3108 9.16703 16.4026L5.68839 17.1929C4.50398 17.462 3.30233 16.7551 2.99249 15.5732L0.824115 7.30093Z" fill="#9C9C9C"/>
</g>
<defs>
<clipPath id="clip0_0_27246">
<rect width="18" height="18" fill="white"/>
</clipPath>
</defs>
</svg>
