<svg width="20" height="20" viewBox="0 0 20 20" fill="none" xmlns="http://www.w3.org/2000/svg">
<path fill-rule="evenodd" clip-rule="evenodd" d="M7.75015 0.672672C7.33289 0.708712 6.85305 0.841832 6.50245 1.01881C5.64203 1.45315 4.99171 2.25405 4.75835 3.16679C4.64683 3.60297 4.65273 3.45265 4.64101 6.15997L4.63015 8.66997L4.49795 8.85997C3.89335 9.72895 3.52539 10.6862 3.36709 11.8017C3.31661 12.1575 3.31639 13.1682 3.36671 13.51C3.48273 14.2979 3.67313 14.9236 3.99965 15.59C4.65891 16.9355 5.71081 17.9903 7.05015 18.6491C7.74633 18.9915 8.41473 19.1907 9.21015 19.2929C9.59971 19.3429 10.4006 19.3429 10.7902 19.2929C12.1918 19.1129 13.3837 18.5757 14.4402 17.6478C15.501 16.7161 16.2689 15.3853 16.5502 13.9909C16.6518 13.4872 16.6693 13.2898 16.6687 12.65C16.6682 12.0254 16.6508 11.8214 16.5582 11.3517C16.3863 10.4806 16.0396 9.65217 15.5406 8.91997L15.3702 8.66997L15.3593 6.15997C15.3476 3.44899 15.3537 3.60385 15.2406 3.16155C14.9481 2.01719 14.0013 1.07193 12.8533 0.778132C12.4254 0.668592 12.5649 0.674112 10.1102 0.669772C8.85615 0.667572 7.79415 0.668872 7.75015 0.672672ZM7.67677 2.12015C7.52629 2.14601 7.36057 2.19891 7.20399 2.27107C6.68875 2.50855 6.31181 2.95013 6.13675 3.52131L6.09119 3.66997L6.08497 5.45381L6.07873 7.23765L6.29443 7.09223C7.16959 6.50225 8.21211 6.12313 9.27171 6.00947C9.66217 5.96759 10.3381 5.96759 10.7286 6.00947C11.7978 6.12415 12.8481 6.50911 13.7352 7.11153L13.9202 7.23715L13.92 5.53357C13.9199 4.43751 13.9124 3.78361 13.8988 3.69997C13.8746 3.55057 13.7975 3.31529 13.7252 3.16997C13.4845 2.68641 13.0473 2.32511 12.4988 2.15641L12.3502 2.11069L10.0602 2.10741C8.80065 2.10559 7.72813 2.11133 7.67677 2.12015ZM9.59015 7.41209C8.86825 7.48601 8.27881 7.64947 7.69015 7.93895C7.16639 8.19651 6.77859 8.46837 6.36545 8.86759C6.04889 9.17347 5.84397 9.41757 5.61629 9.75997C4.78799 11.0056 4.53443 12.5847 4.93059 14.0302C5.02657 14.3803 5.12045 14.6243 5.30033 14.991C6.08533 16.5911 7.65621 17.6858 9.44437 17.879C9.69423 17.906 10.3061 17.906 10.5559 17.879C12.1183 17.7102 13.5066 16.8635 14.3896 15.541C14.5605 15.285 14.8198 14.7725 14.93 14.4728C15.572 12.7265 15.2424 10.7631 14.0668 9.32997C13.7273 8.91621 13.238 8.48331 12.7802 8.19181C12.5124 8.02133 12.0084 7.78761 11.6602 7.67245C11.0884 7.48335 10.7147 7.42067 10.1002 7.41081C9.86365 7.40701 9.63415 7.40759 9.59015 7.41209ZM9.68015 11.3109C9.25127 11.4025 8.82531 11.7959 8.68951 12.2258C8.48707 12.8666 8.75441 13.5317 9.35015 13.8695C9.71759 14.0779 10.2813 14.078 10.6502 13.8698C11.2438 13.5348 11.5128 12.8653 11.3108 12.2258C11.1734 11.7909 10.7472 11.4008 10.3102 11.3098C10.1366 11.2737 9.85217 11.2742 9.68015 11.3109ZM9.96395 12.655C9.96767 12.6742 9.98395 12.69 10.0002 12.69C10.0164 12.69 10.0326 12.6742 10.0364 12.655C10.0411 12.6304 10.0303 12.62 10.0002 12.62C9.97003 12.62 9.95923 12.6304 9.96395 12.655Z" fill="#9C9C9C"/>
</svg>
