<svg width="24" height="24" viewBox="0 0 24 24" fill="none" xmlns="http://www.w3.org/2000/svg">
<path d="M12.9861 6.9293L7.67762 7.99099C7.38108 8.0503 7.23282 8.07995 7.11207 8.15206C7.00533 8.21581 6.91454 8.30308 6.84663 8.40723C6.76982 8.52504 6.73434 8.67202 6.66338 8.96599L4 20M4 20L15.034 17.3366C15.328 17.2657 15.475 17.2302 15.5928 17.1534C15.6969 17.0855 15.7842 16.9947 15.8479 16.8879C15.92 16.7672 15.9497 16.6189 16.009 16.3224L17.0707 11.0139M4 20L10.1971 13.8029M19.4141 8.45582L15.5442 4.58586C15.2207 4.26235 15.0589 4.10059 14.8724 4.03998C14.7083 3.98667 14.5316 3.98667 14.3675 4.03998C14.181 4.10059 14.0192 4.26235 13.6957 4.58586L13.0934 5.18814C12.7699 5.51165 12.6082 5.67341 12.5476 5.85994C12.4942 6.02401 12.4942 6.20075 12.5476 6.36482C12.6082 6.55135 12.7699 6.7131 13.0934 7.03662L16.9634 10.9066C17.2869 11.2301 17.4487 11.3918 17.6352 11.4524C17.7993 11.5058 17.976 11.5058 18.1401 11.4524C18.3266 11.3918 18.4883 11.2301 18.8119 10.9066L19.4141 10.3043C19.7377 9.98078 19.8994 9.81902 19.96 9.63249C20.0133 9.46842 20.0133 9.29168 19.96 9.12761C19.8994 8.94109 19.7377 8.77933 19.4141 8.45582ZM11.3523 11.0139C12.2546 11.0139 12.9861 11.7454 12.9861 12.6477C12.9861 13.5501 12.2546 14.2816 11.3523 14.2816C10.4499 14.2816 9.71843 13.5501 9.71843 12.6477C9.71843 11.7454 10.4499 11.0139 11.3523 11.0139Z" stroke="#333333" stroke-width="1.3" stroke-linecap="round" stroke-linejoin="round"/>
</svg>
