<svg width="16" height="16" viewBox="0 0 16 16" fill="none" xmlns="http://www.w3.org/2000/svg">
<path d="M10.6654 13.333V2.66634C10.6654 2.31272 10.5249 1.97358 10.2748 1.72353C10.0248 1.47348 9.68565 1.33301 9.33203 1.33301H6.66536C6.31174 1.33301 5.9726 1.47348 5.72256 1.72353C5.47251 1.97358 5.33203 2.31272 5.33203 2.66634V13.333" stroke="#333333" stroke-width="1.33333" stroke-linecap="round" stroke-linejoin="round"/>
<path d="M13.334 4H2.66732C1.93094 4 1.33398 4.59695 1.33398 5.33333V12C1.33398 12.7364 1.93094 13.3333 2.66732 13.3333H13.334C14.0704 13.3333 14.6673 12.7364 14.6673 12V5.33333C14.6673 4.59695 14.0704 4 13.334 4Z" stroke="#333333" stroke-width="1.33333" stroke-linecap="round" stroke-linejoin="round"/>
</svg>
