<svg width="12" height="12" viewBox="0 0 12 12" fill="none" xmlns="http://www.w3.org/2000/svg">
<path d="M2.4743 7.21538C2.22802 7.83684 1.83874 8.45207 1.31744 9.04423C1.15155 9.23265 1.13049 9.50163 1.26507 9.71349C1.36871 9.87645 1.54303 9.96928 1.7276 9.96928C1.7796 9.96928 1.83252 9.96196 1.8847 9.94676C2.98956 9.62395 5.56677 8.47734 5.63599 4.8123C5.66272 3.39708 4.62763 2.18126 3.27979 2.0443C2.53692 1.96995 1.7937 2.21129 1.24292 2.70915C0.691406 3.20757 0.375 3.91911 0.375 4.66161C0.375 5.90031 1.25427 6.98356 2.4743 7.21538ZM1.74573 3.26561C2.09601 2.94902 2.53692 2.78038 3.0044 2.78038C3.0705 2.78038 3.13715 2.78367 3.20398 2.79063C4.16656 2.88822 4.9054 3.77006 4.88599 4.79802C4.8382 7.33403 3.46509 8.47569 2.328 8.98637C2.6878 8.49968 2.97052 7.99907 3.17157 7.49168C3.24994 7.29411 3.23694 7.07329 3.13605 6.88579C3.03039 6.68913 2.84198 6.54961 2.61951 6.50291C1.75342 6.32182 1.125 5.54728 1.125 4.6616C1.125 4.13096 1.35132 3.62212 1.74573 3.26561Z" fill="black"/>
<path d="M7.25354 9.71305C7.35717 9.87602 7.53149 9.96885 7.71606 9.96885C7.76806 9.96885 7.8208 9.96153 7.87317 9.94633C8.97802 9.62352 11.5551 8.47691 11.6243 4.81187C11.6506 3.39665 10.6157 2.18083 9.2677 2.04387C8.52392 1.96824 7.78198 2.21067 7.2312 2.70872C6.67969 3.20713 6.36328 3.91868 6.36328 4.66117C6.36328 5.89988 7.24256 6.98313 8.4624 7.21495C8.21594 7.83696 7.82666 8.45219 7.30554 9.04399C7.13964 9.23259 7.11877 9.50139 7.25354 9.71305ZM9.15966 7.49162C9.23803 7.29405 9.22521 7.07322 9.1245 6.88572C9.01867 6.68889 8.83044 6.54936 8.60778 6.50248C7.74169 6.32139 7.11327 5.54686 7.11327 4.66117C7.11327 4.13035 7.33959 3.62169 7.734 3.26518C8.0841 2.94859 8.52502 2.77995 8.99267 2.77995C9.05859 2.77995 9.12524 2.78324 9.19226 2.7902C10.1547 2.88779 10.8937 3.76963 10.8743 4.79758C10.8267 7.33378 9.45336 8.47526 8.31628 8.98594C8.6759 8.49961 8.95825 7.999 9.15966 7.49162Z" fill="black"/>
</svg>
