<svg width="18" height="18" viewBox="0 0 18 18" fill="none" xmlns="http://www.w3.org/2000/svg">
<path d="M16.875 3.375V7.875H13.5" stroke="#333333" stroke-width="1.5" stroke-linecap="round" stroke-linejoin="round"/>
<path d="M1.125 14.625V10.125H4.5" stroke="#333333" stroke-width="1.5" stroke-linecap="round" stroke-linejoin="round"/>
<path d="M2.92193 6.74941C3.28502 5.67421 3.90211 4.71293 4.71562 3.95524C5.52913 3.19755 6.51255 2.66816 7.57411 2.41646C8.63568 2.16477 9.74079 2.19897 10.7863 2.51588C11.8319 2.83278 12.7838 3.42207 13.5532 4.22875L16.875 7.49961M1.125 10.5004L4.44682 13.7713C5.21624 14.5779 6.16813 15.1672 7.21367 15.4841C8.25921 15.801 9.36432 15.8352 10.4259 15.5835C11.4875 15.3318 12.4709 14.8024 13.2844 14.0448C14.0979 13.2871 14.715 12.3258 15.0781 11.2506" stroke="#333333" stroke-width="1.5" stroke-linecap="round" stroke-linejoin="round"/>
</svg>
