<svg width="18" height="18" viewBox="0 0 18 18" fill="none" xmlns="http://www.w3.org/2000/svg">
<path d="M7.04579 14.5283L7.48413 15.5142C7.61443 15.8076 7.82708 16.057 8.0963 16.232C8.36551 16.4069 8.67971 16.5001 9.00079 16.5C9.32188 16.5001 9.63608 16.4069 9.90529 16.232C10.1745 16.057 10.3872 15.8076 10.5175 15.5142L10.9558 14.5283C11.1118 14.1785 11.3743 13.8869 11.7058 13.695C12.0394 13.5026 12.4253 13.4206 12.8083 13.4608L13.8808 13.575C14.2 13.6088 14.5222 13.5492 14.8083 13.4035C15.0944 13.2578 15.332 13.0322 15.4925 12.7542C15.6531 12.4763 15.7296 12.1577 15.7128 11.8372C15.6959 11.5166 15.5864 11.2079 15.3975 10.9483L14.7625 10.0758C14.5364 9.76285 14.4155 9.38611 14.4175 9C14.4174 8.61494 14.5393 8.23976 14.7658 7.92833L15.4008 7.05583C15.5897 6.79632 15.6992 6.48755 15.7161 6.16701C15.733 5.84646 15.6564 5.52791 15.4958 5.25C15.3354 4.97193 15.0977 4.74637 14.8116 4.60067C14.5256 4.45497 14.2034 4.3954 13.8841 4.42917L12.8116 4.54333C12.4286 4.58356 12.0427 4.50159 11.7091 4.30917C11.377 4.11619 11.1144 3.82302 10.9591 3.47167L10.5175 2.48583C10.3872 2.19238 10.1745 1.94304 9.90529 1.76805C9.63608 1.59306 9.32188 1.49995 9.00079 1.5C8.67971 1.49995 8.36551 1.59306 8.0963 1.76805C7.82708 1.94304 7.61443 2.19238 7.48413 2.48583L7.04579 3.47167C6.89049 3.82302 6.62795 4.11619 6.29579 4.30917C5.9622 4.50159 5.5763 4.58356 5.19329 4.54333L4.11746 4.42917C3.79821 4.3954 3.47601 4.45497 3.18995 4.60067C2.90388 4.74637 2.66622 4.97193 2.50579 5.25C2.34516 5.52791 2.26863 5.84646 2.28549 6.16701C2.30236 6.48755 2.41189 6.79632 2.60079 7.05583L3.23579 7.92833C3.46225 8.23976 3.5842 8.61494 3.58413 9C3.5842 9.38506 3.46225 9.76024 3.23579 10.0717L2.60079 10.9442C2.41189 11.2037 2.30236 11.5124 2.28549 11.833C2.26863 12.1535 2.34516 12.4721 2.50579 12.75C2.66638 13.0279 2.90406 13.2534 3.19009 13.399C3.47612 13.5447 3.79823 13.6044 4.11746 13.5708L5.18996 13.4567C5.57296 13.4164 5.95887 13.4984 6.29246 13.6908C6.62586 13.8833 6.88962 14.1765 7.04579 14.5283Z" stroke="#9C9C9C" stroke-width="1.5" stroke-linecap="round" stroke-linejoin="round"/>
<path d="M8.99945 11.25C10.2421 11.25 11.2495 10.2426 11.2495 9C11.2495 7.75736 10.2421 6.75 8.99945 6.75C7.75681 6.75 6.74945 7.75736 6.74945 9C6.74945 10.2426 7.75681 11.25 8.99945 11.25Z" stroke="#9C9C9C" stroke-width="1.5" stroke-linecap="round" stroke-linejoin="round"/>
</svg>
