<svg width="24" height="24" viewBox="0 0 24 24" fill="none" xmlns="http://www.w3.org/2000/svg">
<g clip-path="url(#clip0_51_2162)">
<path d="M9.41113 12.7287C9.26254 13.1772 9.11849 13.6815 8.75293 14.0471C8.38731 14.4126 7.88302 14.5567 7.43457 14.7053L5.25879 15.426L7.43457 16.1477C7.88305 16.2963 8.38731 16.4403 8.75293 16.8059C9.11854 17.1715 9.26251 17.6758 9.41113 18.1242L10.1328 20.3L10.8535 18.1242C11.0021 17.6758 11.1462 17.1715 11.5117 16.8059C11.8773 16.4403 12.3816 16.2963 12.8301 16.1477L15.0068 15.426L12.8301 14.7053C12.3816 14.5567 11.8773 14.4127 11.5117 14.0471C11.1461 13.6815 11.0021 13.1772 10.8535 12.7287L10.1328 10.552L9.41113 12.7287Z" stroke="#333333" stroke-width="1.699" stroke-linejoin="round"/>
<path d="M16.9678 7.74869C16.8842 7.9026 16.7845 8.04916 16.6562 8.1774C16.5283 8.30529 16.383 8.40549 16.2295 8.48892C16.3831 8.5724 16.5283 8.67246 16.6562 8.80045C16.7842 8.92843 16.8843 9.07364 16.9678 9.2272C17.0512 9.07367 17.1514 8.92843 17.2793 8.80045C17.4075 8.6722 17.5541 8.5725 17.708 8.48892C17.554 8.40531 17.4076 8.30573 17.2793 8.1774C17.151 8.04907 17.0514 7.90272 16.9678 7.74869Z" stroke="#333333" stroke-width="1.699" stroke-linejoin="round"/>
<path d="M12.4307 4.95996L12.4316 4.74707V4.79004L12.4307 4.95996ZM12.3662 2.83887C12.3653 2.83975 12.3642 2.84084 12.3633 2.8418C12.34 2.86501 12.3144 2.88574 12.29 2.90723C12.3144 2.92876 12.34 2.94939 12.3633 2.97266C12.3643 2.97363 12.3652 2.97461 12.3662 2.97559C12.3895 2.99891 12.4101 3.02444 12.4316 3.04883C12.4531 3.0245 12.4739 2.99885 12.4971 2.97559C12.498 2.97463 12.4991 2.97354 12.5 2.97266C12.5235 2.94919 12.5496 2.92892 12.5742 2.90723C12.5496 2.88554 12.5235 2.86525 12.5 2.8418C12.499 2.84082 12.498 2.83984 12.4971 2.83887C12.4736 2.81536 12.4533 2.78924 12.4316 2.76465C12.4099 2.78926 12.3897 2.81535 12.3662 2.83887Z" stroke="#333333" stroke-width="1.699" stroke-linejoin="round"/>
</g>
<defs>
<clipPath id="clip0_51_2162">
<rect width="24" height="24" rx="2" fill="white"/>
</clipPath>
</defs>
</svg>
