<svg width="20" height="20" viewBox="0 0 20 20" fill="none" xmlns="http://www.w3.org/2000/svg">
<path fill-rule="evenodd" clip-rule="evenodd" d="M7.49967 13.3334C6.11896 13.3334 4.99967 14.4526 4.99967 15.8334C4.99967 16.2936 5.37277 16.6667 5.83301 16.6667H14.1663C14.6266 16.6667 14.9997 16.2936 14.9997 15.8334C14.9997 14.4526 13.8804 13.3334 12.4997 13.3334H7.49967ZM3.33301 15.8334C3.33301 13.5322 5.19849 11.6667 7.49967 11.6667H12.4997C14.8009 11.6667 16.6663 13.5322 16.6663 15.8334C16.6663 17.2141 15.5471 18.3334 14.1663 18.3334H5.83301C4.4523 18.3334 3.33301 17.2141 3.33301 15.8334Z" fill="#9C9C9C"/>
<path fill-rule="evenodd" clip-rule="evenodd" d="M9.99967 3.33335C8.61896 3.33335 7.49967 4.45264 7.49967 5.83335C7.49967 7.21407 8.61896 8.33335 9.99967 8.33335C11.3804 8.33335 12.4997 7.21407 12.4997 5.83335C12.4997 4.45264 11.3804 3.33335 9.99967 3.33335ZM5.83301 5.83335C5.83301 3.53217 7.69849 1.66669 9.99967 1.66669C12.3009 1.66669 14.1663 3.53217 14.1663 5.83335C14.1663 8.13454 12.3009 10 9.99967 10C7.69849 10 5.83301 8.13454 5.83301 5.83335Z" fill="#9C9C9C"/>
</svg>
