<svg width="24" height="24" viewBox="0 0 24 24" fill="none" xmlns="http://www.w3.org/2000/svg">
<path fill-rule="evenodd" clip-rule="evenodd" d="M16.5224 3.6875H17.2221C18.5721 3.6875 19.6665 4.89632 19.6665 6.3875V7.0625C19.6665 7.4353 19.3929 7.7375 19.0554 7.7375C18.7179 7.7375 18.4443 7.4353 18.4443 7.0625V6.3875C18.4443 5.64193 17.8971 5.0375 17.2221 5.0375H16.5224C16.2595 6.01338 15.441 6.725 14.4721 6.725H10.1944C9.22548 6.725 8.40703 6.01338 8.1441 5.0375H7.44442C6.76942 5.0375 6.22221 5.64193 6.22221 6.3875V19.55C6.22221 20.2956 6.76942 20.9 7.44442 20.9H9.27773C9.61524 20.9 9.88883 21.2022 9.88883 21.575C9.88883 21.9478 9.61524 22.25 9.27773 22.25H7.44442C6.0944 22.25 5 21.0412 5 19.55V6.3875C5 4.89632 6.0944 3.6875 7.44442 3.6875H8.1441C8.40703 2.71162 9.22548 2 10.1944 2H14.4721C15.441 2 16.2595 2.71162 16.5224 3.6875ZM9.27773 4.3625C9.27773 3.80331 9.68812 3.35 10.1944 3.35H14.4721C14.9784 3.35 15.3888 3.80331 15.3888 4.3625C15.3888 4.9217 14.9784 5.375 14.4721 5.375H10.1944C9.68812 5.375 9.27773 4.9217 9.27773 4.3625Z" fill="#333333" stroke="#333333" stroke-width="0.2"/>
<path d="M11.7217 21.5752C11.7217 21.948 11.9953 22.2502 12.3328 22.2502H17.2216C18.5716 22.2502 19.666 21.0414 19.666 19.5502V10.4377C19.666 10.0649 19.3924 9.7627 19.0549 9.7627C18.7174 9.7627 18.4438 10.0649 18.4438 10.4377V19.5502C18.4438 20.2958 17.8966 20.9002 17.2216 20.9002H12.3328C11.9953 20.9002 11.7217 21.2024 11.7217 21.5752Z" fill="#333333" stroke="#333333" stroke-width="0.2"/>
<path d="M11.2377 9.96041C11.4764 10.224 11.4764 10.6514 11.2377 10.915L9.4044 12.94C9.2724 13.0858 9.08727 13.157 8.90183 13.1332C8.71639 13.1094 8.55096 12.9933 8.4527 12.818L7.84159 11.7276C7.66394 11.4106 7.75255 10.9946 8.03953 10.7984C8.3265 10.6022 8.70313 10.7 8.88078 11.017L9.08577 11.3828L10.3735 9.96041C10.6121 9.69679 10.9991 9.69679 11.2377 9.96041Z" fill="#333333" stroke="#333333" stroke-width="0.2"/>
<path d="M12.6387 11.1125C12.6387 10.7397 12.9123 10.4375 13.2498 10.4375H16.3053C16.6428 10.4375 16.9164 10.7397 16.9164 11.1125C16.9164 11.4853 16.6428 11.7875 16.3053 11.7875H13.2498C12.9123 11.7875 12.6387 11.4853 12.6387 11.1125Z" fill="#333333" stroke="#333333" stroke-width="0.2"/>
<path d="M12.6387 15.5002C12.6387 15.1274 12.9123 14.8252 13.2498 14.8252H16.3053C16.6428 14.8252 16.9164 15.1274 16.9164 15.5002C16.9164 15.873 16.6428 16.1752 16.3053 16.1752H13.2498C12.9123 16.1752 12.6387 15.873 12.6387 15.5002Z" fill="#333333" stroke="#333333" stroke-width="0.2"/>
<path d="M11.2377 14.685C11.4764 14.9486 11.4764 15.376 11.2377 15.6396L9.4044 17.6646C9.2724 17.8104 9.08727 17.8816 8.90183 17.8578C8.71639 17.834 8.55096 17.7179 8.4527 17.5426L7.84159 16.4522C7.66394 16.1353 7.75255 15.7192 8.03953 15.523C8.3265 15.3268 8.70313 15.4247 8.88078 15.7416L9.08577 16.1074L10.3735 14.685C10.6121 14.4214 10.9991 14.4214 11.2377 14.685Z" fill="#333333" stroke="#333333" stroke-width="0.2"/>
</svg>
