<svg width="20" height="20" viewBox="0 0 20 20" fill="none" xmlns="http://www.w3.org/2000/svg">
<path d="M1 3.75033C1 3.29009 1.3731 2.91699 1.83333 2.91699H18.1667C18.6269 2.91699 19 3.29009 19 3.75033C19 4.21056 18.6269 4.58366 18.1667 4.58366H1.83333C1.3731 4.58366 1 4.21056 1 3.75033ZM1 16.2503C1 15.7901 1.3731 15.417 1.83333 15.417H12.1667C12.6269 15.417 13 15.7901 13 16.2503C13 16.7106 12.6269 17.0837 12.1667 17.0837H1.83333C1.3731 17.0837 1 16.7106 1 16.2503ZM1 12.0837C1 11.6234 1.3731 11.2503 1.83333 11.2503H18.1667C18.6269 11.2503 19 11.6234 19 12.0837C19 12.5439 18.6269 12.917 18.1667 12.917H1.83333C1.3731 12.917 1 12.5439 1 12.0837ZM1 7.91699C1 7.45676 1.3731 7.08366 1.83333 7.08366H12.1667C12.6269 7.08366 13 7.45676 13 7.91699C13 8.37723 12.6269 8.75033 12.1667 8.75033H1.83333C1.3731 8.75033 1 8.37723 1 7.91699Z" fill="#969696"/>
</svg>
