<svg width="20" height="20" viewBox="0 0 20 20" fill="none" xmlns="http://www.w3.org/2000/svg">
<path fill-rule="evenodd" clip-rule="evenodd" d="M10.5996 1.69168C5.52465 1.33335 1.33298 5.52502 1.69132 10.6C1.99132 15.0083 5.84132 18.3333 10.258 18.3333H13.333C13.7913 18.3333 14.1663 17.9583 14.1663 17.5C14.1663 17.0417 13.7913 16.6667 13.333 16.6667H10.2746C7.16632 16.6667 4.31632 14.65 3.54132 11.6417C2.29965 6.80835 6.79965 2.30002 11.633 3.55002C14.6496 4.31668 16.6663 7.16668 16.6663 10.275V11.1917C16.6663 11.85 16.0746 12.5 15.4163 12.5C14.758 12.5 14.1663 11.85 14.1663 11.1917V10.15C14.1663 8.05835 12.683 6.17502 10.6163 5.88335C7.78298 5.47502 5.39132 7.92502 5.89965 10.775C6.18298 12.3667 7.42465 13.6833 8.99965 14.0583C10.533 14.4167 11.9913 13.925 12.9496 12.95C13.6913 13.9667 15.1747 14.5 16.533 13.9583C17.6496 13.5167 18.333 12.375 18.333 11.175V10.2667C18.333 5.84168 15.008 1.99168 10.5996 1.69168ZM9.99965 12.5C8.61632 12.5 7.49965 11.3833 7.49965 10C7.49965 8.61668 8.61632 7.50002 9.99965 7.50002C11.383 7.50002 12.4997 8.61668 12.4997 10C12.4997 11.3833 11.383 12.5 9.99965 12.5Z" fill="#969696"/>
</svg>
