<svg width="14" height="16" viewBox="0 0 14 16" fill="none" xmlns="http://www.w3.org/2000/svg">
<path d="M0.333984 1.75033C0.333984 1.29009 0.707081 0.916992 1.16732 0.916992H12.834C13.2942 0.916992 13.6673 1.29009 13.6673 1.75033C13.6673 2.21056 13.2942 2.58366 12.834 2.58366H1.16732C0.70708 2.58366 0.333984 2.21056 0.333984 1.75033ZM2.83398 14.2503C2.83398 13.7901 3.20708 13.417 3.66732 13.417H10.334C10.7942 13.417 11.1673 13.7901 11.1673 14.2503C11.1673 14.7106 10.7942 15.0837 10.334 15.0837H3.66732C3.20708 15.0837 2.83398 14.7106 2.83398 14.2503ZM2.83398 5.91699C2.83398 5.45676 3.20708 5.08366 3.66732 5.08366H10.334C10.7942 5.08366 11.1673 5.45676 11.1673 5.91699C11.1673 6.37723 10.7942 6.75033 10.334 6.75033H3.66732C3.20708 6.75033 2.83398 6.37723 2.83398 5.91699ZM0.333984 10.0837C0.333984 9.62342 0.707081 9.25033 1.16732 9.25033H12.834C13.2942 9.25033 13.6673 9.62342 13.6673 10.0837C13.6673 10.5439 13.2942 10.917 12.834 10.917H1.16732C0.70708 10.917 0.333984 10.5439 0.333984 10.0837Z" fill="#969696"/>
</svg>
