<svg width="20" height="20" viewBox="0 0 20 20" fill="none" xmlns="http://www.w3.org/2000/svg">
<path fill-rule="evenodd" clip-rule="evenodd" d="M4.43517 4.99967C4.11697 4.99967 3.75065 5.29889 3.75065 5.80697V10.6684L5.94929 7.72686C5.97317 7.69492 5.99931 7.66472 6.02751 7.63652C6.84111 6.82292 8.1602 6.82293 8.97379 7.63652C8.9911 7.65383 9.00764 7.6719 9.02337 7.69067L11.9992 11.2433L12.9025 10.3449L12.9035 10.3439C13.7172 9.53126 15.0355 9.53159 15.8488 10.3449C15.8689 10.3649 15.8879 10.386 15.9058 10.408L16.2507 10.8316V5.80697C16.2507 5.29889 15.8843 4.99967 15.5661 4.99967H4.43517ZM17.9173 5.80697C17.9173 4.50285 16.9245 3.33301 15.5661 3.33301H4.43517C3.0768 3.33301 2.08398 4.50285 2.08398 5.80697V14.9997C2.08398 15.9201 2.83018 16.6663 3.75065 16.6663H16.2507C17.1711 16.6663 17.9173 15.9201 17.9173 14.9997V5.80697ZM16.2507 13.4715L14.6473 11.5021C14.4836 11.361 14.2363 11.3681 14.081 11.5234L14.0794 11.525L12.5309 13.0651C12.3654 13.2297 12.1385 13.3174 11.9054 13.3068C11.6723 13.2962 11.4543 13.1883 11.3044 13.0094L7.77558 8.79655C7.62292 8.66225 7.39551 8.65858 7.23877 8.78553L3.75065 13.4522V14.1924C3.75065 14.7005 4.11697 14.9997 4.43517 14.9997H15.5661C15.8843 14.9997 16.2507 14.7005 16.2507 14.1924V13.4715Z" fill="#969696"/>
<path d="M12.5007 8.74967C13.1907 8.74967 13.7507 8.19092 13.7507 7.49967C13.7507 6.80967 13.1907 6.24967 12.5007 6.24967C11.8107 6.24967 11.2507 6.80967 11.2507 7.49967C11.2507 8.19092 11.8107 8.74967 12.5007 8.74967Z" fill="#969696"/>
</svg>
