<svg width="20" height="20" viewBox="0 0 20 20" fill="none" xmlns="http://www.w3.org/2000/svg">
<path fill-rule="evenodd" clip-rule="evenodd" d="M7.50065 4.16634C7.50065 3.7061 7.87375 3.33301 8.33398 3.33301H15.834C16.2942 3.33301 16.6673 3.7061 16.6673 4.16634C16.6673 4.62658 16.2942 4.99967 15.834 4.99967H12.6966L9.05081 14.9997H11.6673C12.1276 14.9997 12.5007 15.3728 12.5007 15.833C12.5007 16.2932 12.1276 16.6663 11.6673 16.6663H4.16732C3.70708 16.6663 3.33398 16.2932 3.33398 15.833C3.33398 15.3728 3.70708 14.9997 4.16732 14.9997H7.30466L10.9505 4.99967H8.33398C7.87375 4.99967 7.50065 4.62658 7.50065 4.16634Z" fill="#969696"/>
</svg>
