<svg width="20" height="20" viewBox="0 0 20 20" fill="none" xmlns="http://www.w3.org/2000/svg">
<path d="M2.5 3.75033C2.5 3.29009 2.8731 2.91699 3.33333 2.91699H16.6667C17.1269 2.91699 17.5 3.29009 17.5 3.75033C17.5 4.21056 17.1269 4.58366 16.6667 4.58366H3.33333C2.8731 4.58366 2.5 4.21056 2.5 3.75033ZM2.5 16.2503C2.5 15.7901 2.8731 15.417 3.33333 15.417H16.6667C17.1269 15.417 17.5 15.7901 17.5 16.2503C17.5 16.7106 17.1269 17.0837 16.6667 17.0837H3.33333C2.8731 17.0837 2.5 16.7106 2.5 16.2503ZM2.5 12.0837C2.5 11.6234 2.8731 11.2503 3.33333 11.2503H16.6667C17.1269 11.2503 17.5 11.6234 17.5 12.0837C17.5 12.5439 17.1269 12.917 16.6667 12.917H3.33333C2.8731 12.917 2.5 12.5439 2.5 12.0837ZM2.5 7.91699C2.5 7.45676 2.8731 7.08366 3.33333 7.08366H16.6667C17.1269 7.08366 17.5 7.45676 17.5 7.91699C17.5 8.37723 17.1269 8.75033 16.6667 8.75033H3.33333C2.8731 8.75033 2.5 8.37723 2.5 7.91699Z" fill="#969696"/>
</svg>
