<svg width="20" height="20" viewBox="0 0 20 20" fill="none" xmlns="http://www.w3.org/2000/svg">
<path d="M12.513 15.0282C12.0529 15.0282 11.6798 14.6551 11.6798 14.1949C11.6798 13.7348 12.0529 13.3617 12.513 13.3617H13.3462C13.784 13.3617 14.2174 13.2755 14.6219 13.108C15.0263 12.9405 15.3938 12.6949 15.7033 12.3854C16.0128 12.0759 16.2584 11.7084 16.4259 11.304C16.5934 10.8995 16.6796 10.4661 16.6796 10.0283C16.6796 9.59057 16.5934 9.15711 16.4259 8.75268C16.2584 8.34825 16.0128 7.98077 15.7033 7.67124C15.3938 7.3617 15.0263 7.11616 14.6219 6.94864C14.2174 6.78112 13.784 6.6949 13.3462 6.6949H12.513C12.0529 6.6949 11.6798 6.32186 11.6798 5.86169C11.6798 5.40153 12.0529 5.02849 12.513 5.02849L13.3462 5.02849C14.6652 5.03923 15.9265 5.57073 16.8554 6.50721C17.7843 7.4437 18.3055 8.70929 18.3055 10.0283C18.3055 11.3473 17.7843 12.6129 16.8554 13.5494C15.9265 14.4859 14.6652 15.0174 13.3462 15.0282H12.513ZM8.34581 14.1949C8.34581 14.6551 7.97277 15.0282 7.5126 15.0282H6.67939C6.01938 15.0335 5.36483 14.9082 4.7535 14.6593C4.14218 14.4105 3.58618 14.043 3.11756 13.5782C2.64895 13.1134 2.27701 12.5604 2.02318 11.9511C1.76935 11.3419 1.63867 10.6884 1.63867 10.0283C1.63867 9.36828 1.76935 8.71478 2.02318 8.1055C2.277 7.49622 2.64895 6.94323 3.11756 6.47842C3.58618 6.01361 4.14218 5.64618 4.7535 5.39732C5.36483 5.14847 6.01938 5.02311 6.67939 5.02849L7.5126 5.02849C7.97277 5.02849 8.34581 5.40153 8.34581 5.86169C8.34581 6.32186 7.97276 6.6949 7.5126 6.6949H6.67939C6.24164 6.6949 5.80818 6.78112 5.40375 6.94864C4.99932 7.11616 4.63184 7.3617 4.32231 7.67124C4.01277 7.98077 3.76723 8.34825 3.59971 8.75268C3.43219 9.15711 3.34597 9.59057 3.34597 10.0283C3.34597 10.4661 3.43219 10.8995 3.59971 11.304C3.76723 11.7084 4.01277 12.0759 4.32231 12.3854C4.63184 12.6949 4.99932 12.9405 5.40375 13.108C5.80818 13.2755 6.24164 13.3617 6.67939 13.3617H7.5126C7.97277 13.3617 8.34581 13.7348 8.34581 14.1949ZM13.3457 9.19452C13.8061 9.19452 14.1794 9.56781 14.1794 10.0283C14.1794 10.4888 13.8061 10.8621 13.3456 10.8621L6.67995 10.8616C6.21974 10.8616 5.84664 10.4886 5.84648 10.0283C5.84631 9.56789 6.21955 9.19452 6.68001 9.19452H13.3457Z" fill="#969696"/>
</svg>
