<svg width="20" height="20" viewBox="0 0 20 20" fill="none" xmlns="http://www.w3.org/2000/svg">
<path d="M5.00065 9.16665C5.00065 8.70641 4.62755 8.33331 4.16732 8.33331C3.70708 8.33331 3.33398 8.70641 3.33398 9.16665C3.33398 12.5663 5.87872 15.3717 9.16732 15.7817V17.5C9.16732 17.9602 9.54041 18.3333 10.0007 18.3333C10.4609 18.3333 10.834 17.9602 10.834 17.5V15.7817C14.1226 15.3717 16.6673 12.5663 16.6673 9.16665C16.6673 8.70641 16.2942 8.33331 15.834 8.33331C15.3737 8.33331 15.0007 8.70641 15.0007 9.16665C15.0007 11.9281 12.7621 14.1666 10.0007 14.1666C7.23923 14.1666 5.00065 11.9281 5.00065 9.16665Z" fill="#969696"/>
<path d="M9.99902 2.41669C11.4256 2.41669 12.5828 3.57311 12.583 4.99969V9.16669C12.583 10.5934 11.4258 11.7497 9.99902 11.7497C8.57244 11.7495 7.41602 10.5933 7.41602 9.16669V4.99969C7.41619 3.57322 8.57255 2.41686 9.99902 2.41669Z" stroke="#969696" stroke-width="1.5"/>
</svg>
