<svg width="20" height="20" viewBox="0 0 20 20" fill="none" xmlns="http://www.w3.org/2000/svg">
<path d="M14.295 11.6663C14.4867 12.0963 14.5833 12.5747 14.5833 13.0997C14.5833 14.218 14.1467 15.093 13.2742 15.7222C12.4 16.3513 11.1942 16.6663 9.655 16.6663C8.44432 16.6663 7.24475 16.4172 6.05572 15.9183C5.77253 15.7995 5.59667 15.5173 5.59667 15.2102C5.59667 14.598 6.26562 14.2087 6.83703 14.4284C7.70615 14.7625 8.58872 14.9297 9.485 14.9297C11.6108 14.9297 12.6767 14.3197 12.6842 13.0988C12.6886 12.8513 12.643 12.6054 12.5502 12.3759C12.4574 12.1464 12.3193 11.9379 12.1442 11.763L12.0442 11.6655H3.33333C2.8731 11.6655 2.5 11.2924 2.5 10.8322C2.5 10.3719 2.8731 9.99884 3.33333 9.99884H16.6667C17.1269 9.99884 17.5 10.3719 17.5 10.8322C17.5 11.2924 17.1269 11.6655 16.6667 11.6655H14.295V11.6663ZM10.8402 9.14689C10.8508 9.15056 10.8482 9.16634 10.8369 9.16634H6.36137C6.35888 9.16634 6.35648 9.16541 6.35464 9.16373C6.20977 9.03134 6.07662 8.88667 5.95667 8.73134C5.59667 8.26634 5.41667 7.70467 5.41667 7.04301C5.41667 6.01301 5.805 5.13717 6.58083 4.41551C7.35833 3.69384 8.55917 3.33301 10.185 3.33301C11.2534 3.33301 12.2819 3.54063 13.2694 3.95587C13.5383 4.06894 13.7033 4.33801 13.7033 4.6297C13.7033 5.2161 13.06 5.59387 12.5027 5.41155C11.8431 5.19579 11.1473 5.08801 10.415 5.08801C8.34833 5.08801 7.31583 5.73967 7.31583 7.04301C7.31583 7.39301 7.4975 7.69801 7.86083 7.95884C8.22417 8.21967 9.205 8.58384 9.205 8.58384L10.8402 9.14689Z" fill="#969696"/>
</svg>
