<svg width="20" height="20" viewBox="0 0 20 20" fill="none" xmlns="http://www.w3.org/2000/svg">
<path d="M2.5 16.6667C2.5 16.2064 2.8731 15.8333 3.33333 15.8333H16.6667C17.1269 15.8333 17.5 16.2064 17.5 16.6667C17.5 17.1269 17.1269 17.5 16.6667 17.5H3.33333C2.8731 17.5 2.5 17.1269 2.5 16.6667Z" fill="#969696"/>
<path d="M12.9133 11.6667H7.08667L5.96286 14.4762C5.83631 14.7925 5.5299 15 5.18916 15C4.59962 15 4.1965 14.4046 4.41545 13.8572L8.95713 3.02384C9.08368 2.70746 9.39011 2.5 9.73086 2.5H10.2691C10.6099 2.5 10.9163 2.70746 11.0429 3.02384L15.5845 13.8572C15.8035 14.4046 15.4004 15 14.8108 15C14.4701 15 14.1637 14.7925 14.0371 14.4762L12.9133 11.6667ZM12.2467 10L10 4.90417L7.75333 10H12.2467Z" fill="#969696"/>
</svg>
