<svg width="20" height="20" viewBox="0 0 20 20" fill="none" xmlns="http://www.w3.org/2000/svg">
<path d="M6.66602 3.33333C6.66602 2.8731 6.29292 2.5 5.83268 2.5C5.37244 2.5 4.99935 2.8731 4.99935 3.33333V9.16667C4.99935 12.3883 5.83268 15 9.99935 15C14.166 15 14.9993 12.3883 14.9993 9.16667V3.33333C14.9993 2.8731 14.6263 2.5 14.166 2.5C13.7058 2.5 13.3327 2.8731 13.3327 3.33333V9.16667C13.3327 11.4679 13.3327 13.3333 9.99935 13.3333C6.66601 13.3333 6.66602 11.4679 6.66602 9.16667V3.33333Z" fill="#969696"/>
<path d="M4.99935 15.8333C4.53911 15.8333 4.16602 16.2064 4.16602 16.6667C4.16602 17.1269 4.53911 17.5 4.99935 17.5H14.9993C15.4596 17.5 15.8327 17.1269 15.8327 16.6667C15.8327 16.2064 15.4596 15.8333 14.9993 15.8333H4.99935Z" fill="#969696"/>
</svg>
